<svg xmlns="http://www.w3.org/2000/svg" width="380" height="480" viewBox="0 0 380 480">
  <defs>
    <pattern id="grid" width="16" height="16" patternUnits="userSpaceOnUse">
      <rect width="16" height="16" fill="#122016"/>
      <rect width="1" height="16" fill="#ffffff" opacity="0.03"/>
      <rect width="16" height="1" fill="#ffffff" opacity="0.03"/>
    </pattern>
  </defs>

  <path d="M 18,0 L 362,0 L 380,18 L 380,462 L 362,480 L 18,480 L 0,462 L 0,18 Z" fill="#6fcf97"/>
  <path d="M 20,6 L 360,6 L 374,20 L 374,460 L 360,474 L 20,474 L 6,460 L 6,20 Z" fill="url(#grid)"/>

  <!-- header -->
  <path d="M 30,24 L 96,24 L 102,30 L 102,48 L 96,54 L 30,54 L 24,48 L 24,30 Z" fill="#a6e3a1"/>
  <text x="63" y="44" text-anchor="middle" font-family="'Segoe UI', sans-serif" font-size="15" font-weight="700" fill="#122016">週四</text>

  <text x="356" y="44" text-anchor="end" font-family="'Segoe UI', sans-serif" font-size="18" font-weight="700" fill="#9bc4a8">2026</text>

  <text x="190" y="90" text-anchor="middle" font-family="'Segoe UI', sans-serif" font-size="22" font-weight="700" letter-spacing="6" fill="#9bc4a8">七月</text>

  <!-- hero day-of-month, rendered as beveled pixel blocks -->
  <rect x="95" y="150" width="22" height="22" fill="#8ee6a5"/><rect x="95" y="150" width="22" height="4" fill="#dbfbe3"/><rect x="95" y="150" width="4" height="22" fill="#dbfbe3"/><rect x="95" y="168" width="22" height="4" fill="#3f9e5f"/><rect x="113" y="150" width="4" height="22" fill="#3f9e5f"/><rect x="117" y="150" width="22" height="22" fill="#8ee6a5"/><rect x="117" y="150" width="22" height="4" fill="#dbfbe3"/><rect x="117" y="150" width="4" height="22" fill="#dbfbe3"/><rect x="117" y="168" width="22" height="4" fill="#3f9e5f"/><rect x="135" y="150" width="4" height="22" fill="#3f9e5f"/><rect x="139" y="150" width="22" height="22" fill="#8ee6a5"/><rect x="139" y="150" width="22" height="4" fill="#dbfbe3"/><rect x="139" y="150" width="4" height="22" fill="#dbfbe3"/><rect x="139" y="168" width="22" height="4" fill="#3f9e5f"/><rect x="157" y="150" width="4" height="22" fill="#3f9e5f"/><rect x="73" y="172" width="22" height="22" fill="#8ee6a5"/><rect x="73" y="172" width="22" height="4" fill="#dbfbe3"/><rect x="73" y="172" width="4" height="22" fill="#dbfbe3"/><rect x="73" y="190" width="22" height="4" fill="#3f9e5f"/><rect x="91" y="172" width="4" height="22" fill="#3f9e5f"/><rect x="161" y="172" width="22" height="22" fill="#8ee6a5"/><rect x="161" y="172" width="22" height="4" fill="#dbfbe3"/><rect x="161" y="172" width="4" height="22" fill="#dbfbe3"/><rect x="161" y="190" width="22" height="4" fill="#3f9e5f"/><rect x="179" y="172" width="4" height="22" fill="#3f9e5f"/><rect x="161" y="194" width="22" height="22" fill="#8ee6a5"/><rect x="161" y="194" width="22" height="4" fill="#dbfbe3"/><rect x="161" y="194" width="4" height="22" fill="#dbfbe3"/><rect x="161" y="212" width="22" height="4" fill="#3f9e5f"/><rect x="179" y="194" width="4" height="22" fill="#3f9e5f"/><rect x="139" y="216" width="22" height="22" fill="#8ee6a5"/><rect x="139" y="216" width="22" height="4" fill="#dbfbe3"/><rect x="139" y="216" width="4" height="22" fill="#dbfbe3"/><rect x="139" y="234" width="22" height="4" fill="#3f9e5f"/><rect x="157" y="216" width="4" height="22" fill="#3f9e5f"/><rect x="117" y="238" width="22" height="22" fill="#8ee6a5"/><rect x="117" y="238" width="22" height="4" fill="#dbfbe3"/><rect x="117" y="238" width="4" height="22" fill="#dbfbe3"/><rect x="117" y="256" width="22" height="4" fill="#3f9e5f"/><rect x="135" y="238" width="4" height="22" fill="#3f9e5f"/><rect x="95" y="260" width="22" height="22" fill="#8ee6a5"/><rect x="95" y="260" width="22" height="4" fill="#dbfbe3"/><rect x="95" y="260" width="4" height="22" fill="#dbfbe3"/><rect x="95" y="278" width="22" height="4" fill="#3f9e5f"/><rect x="113" y="260" width="4" height="22" fill="#3f9e5f"/><rect x="73" y="282" width="22" height="22" fill="#8ee6a5"/><rect x="73" y="282" width="22" height="4" fill="#dbfbe3"/><rect x="73" y="282" width="4" height="22" fill="#dbfbe3"/><rect x="73" y="300" width="22" height="4" fill="#3f9e5f"/><rect x="91" y="282" width="4" height="22" fill="#3f9e5f"/><rect x="95" y="282" width="22" height="22" fill="#8ee6a5"/><rect x="95" y="282" width="22" height="4" fill="#dbfbe3"/><rect x="95" y="282" width="4" height="22" fill="#dbfbe3"/><rect x="95" y="300" width="22" height="4" fill="#3f9e5f"/><rect x="113" y="282" width="4" height="22" fill="#3f9e5f"/><rect x="117" y="282" width="22" height="22" fill="#8ee6a5"/><rect x="117" y="282" width="22" height="4" fill="#dbfbe3"/><rect x="117" y="282" width="4" height="22" fill="#dbfbe3"/><rect x="117" y="300" width="22" height="4" fill="#3f9e5f"/><rect x="135" y="282" width="4" height="22" fill="#3f9e5f"/><rect x="139" y="282" width="22" height="22" fill="#8ee6a5"/><rect x="139" y="282" width="22" height="4" fill="#dbfbe3"/><rect x="139" y="282" width="4" height="22" fill="#dbfbe3"/><rect x="139" y="300" width="22" height="4" fill="#3f9e5f"/><rect x="157" y="282" width="4" height="22" fill="#3f9e5f"/><rect x="161" y="282" width="22" height="22" fill="#8ee6a5"/><rect x="161" y="282" width="22" height="4" fill="#dbfbe3"/><rect x="161" y="282" width="4" height="22" fill="#dbfbe3"/><rect x="161" y="300" width="22" height="4" fill="#3f9e5f"/><rect x="179" y="282" width="4" height="22" fill="#3f9e5f"/><rect x="197" y="150" width="22" height="22" fill="#8ee6a5"/><rect x="197" y="150" width="22" height="4" fill="#dbfbe3"/><rect x="197" y="150" width="4" height="22" fill="#dbfbe3"/><rect x="197" y="168" width="22" height="4" fill="#3f9e5f"/><rect x="215" y="150" width="4" height="22" fill="#3f9e5f"/><rect x="219" y="150" width="22" height="22" fill="#8ee6a5"/><rect x="219" y="150" width="22" height="4" fill="#dbfbe3"/><rect x="219" y="150" width="4" height="22" fill="#dbfbe3"/><rect x="219" y="168" width="22" height="4" fill="#3f9e5f"/><rect x="237" y="150" width="4" height="22" fill="#3f9e5f"/><rect x="241" y="150" width="22" height="22" fill="#8ee6a5"/><rect x="241" y="150" width="22" height="4" fill="#dbfbe3"/><rect x="241" y="150" width="4" height="22" fill="#dbfbe3"/><rect x="241" y="168" width="22" height="4" fill="#3f9e5f"/><rect x="259" y="150" width="4" height="22" fill="#3f9e5f"/><rect x="263" y="150" width="22" height="22" fill="#8ee6a5"/><rect x="263" y="150" width="22" height="4" fill="#dbfbe3"/><rect x="263" y="150" width="4" height="22" fill="#dbfbe3"/><rect x="263" y="168" width="22" height="4" fill="#3f9e5f"/><rect x="281" y="150" width="4" height="22" fill="#3f9e5f"/><rect x="285" y="150" width="22" height="22" fill="#8ee6a5"/><rect x="285" y="150" width="22" height="4" fill="#dbfbe3"/><rect x="285" y="150" width="4" height="22" fill="#dbfbe3"/><rect x="285" y="168" width="22" height="4" fill="#3f9e5f"/><rect x="303" y="150" width="4" height="22" fill="#3f9e5f"/><rect x="263" y="172" width="22" height="22" fill="#8ee6a5"/><rect x="263" y="172" width="22" height="4" fill="#dbfbe3"/><rect x="263" y="172" width="4" height="22" fill="#dbfbe3"/><rect x="263" y="190" width="22" height="4" fill="#3f9e5f"/><rect x="281" y="172" width="4" height="22" fill="#3f9e5f"/><rect x="241" y="194" width="22" height="22" fill="#8ee6a5"/><rect x="241" y="194" width="22" height="4" fill="#dbfbe3"/><rect x="241" y="194" width="4" height="22" fill="#dbfbe3"/><rect x="241" y="212" width="22" height="4" fill="#3f9e5f"/><rect x="259" y="194" width="4" height="22" fill="#3f9e5f"/><rect x="263" y="216" width="22" height="22" fill="#8ee6a5"/><rect x="263" y="216" width="22" height="4" fill="#dbfbe3"/><rect x="263" y="216" width="4" height="22" fill="#dbfbe3"/><rect x="263" y="234" width="22" height="4" fill="#3f9e5f"/><rect x="281" y="216" width="4" height="22" fill="#3f9e5f"/><rect x="285" y="238" width="22" height="22" fill="#8ee6a5"/><rect x="285" y="238" width="22" height="4" fill="#dbfbe3"/><rect x="285" y="238" width="4" height="22" fill="#dbfbe3"/><rect x="285" y="256" width="22" height="4" fill="#3f9e5f"/><rect x="303" y="238" width="4" height="22" fill="#3f9e5f"/><rect x="197" y="260" width="22" height="22" fill="#8ee6a5"/><rect x="197" y="260" width="22" height="4" fill="#dbfbe3"/><rect x="197" y="260" width="4" height="22" fill="#dbfbe3"/><rect x="197" y="278" width="22" height="4" fill="#3f9e5f"/><rect x="215" y="260" width="4" height="22" fill="#3f9e5f"/><rect x="285" y="260" width="22" height="22" fill="#8ee6a5"/><rect x="285" y="260" width="22" height="4" fill="#dbfbe3"/><rect x="285" y="260" width="4" height="22" fill="#dbfbe3"/><rect x="285" y="278" width="22" height="4" fill="#3f9e5f"/><rect x="303" y="260" width="4" height="22" fill="#3f9e5f"/><rect x="219" y="282" width="22" height="22" fill="#8ee6a5"/><rect x="219" y="282" width="22" height="4" fill="#dbfbe3"/><rect x="219" y="282" width="4" height="22" fill="#dbfbe3"/><rect x="219" y="300" width="22" height="4" fill="#3f9e5f"/><rect x="237" y="282" width="4" height="22" fill="#3f9e5f"/><rect x="241" y="282" width="22" height="22" fill="#8ee6a5"/><rect x="241" y="282" width="22" height="4" fill="#dbfbe3"/><rect x="241" y="282" width="4" height="22" fill="#dbfbe3"/><rect x="241" y="300" width="22" height="4" fill="#3f9e5f"/><rect x="259" y="282" width="4" height="22" fill="#3f9e5f"/><rect x="263" y="282" width="22" height="22" fill="#8ee6a5"/><rect x="263" y="282" width="22" height="4" fill="#dbfbe3"/><rect x="263" y="282" width="4" height="22" fill="#dbfbe3"/><rect x="263" y="300" width="22" height="4" fill="#3f9e5f"/><rect x="281" y="282" width="4" height="22" fill="#3f9e5f"/>

  <rect x="24" y="330" width="8" height="3" fill="#254230"/><rect x="38" y="330" width="8" height="3" fill="#254230"/><rect x="52" y="330" width="8" height="3" fill="#254230"/><rect x="66" y="330" width="8" height="3" fill="#254230"/><rect x="80" y="330" width="8" height="3" fill="#254230"/><rect x="94" y="330" width="8" height="3" fill="#254230"/><rect x="108" y="330" width="8" height="3" fill="#254230"/><rect x="122" y="330" width="8" height="3" fill="#254230"/><rect x="136" y="330" width="8" height="3" fill="#254230"/><rect x="150" y="330" width="8" height="3" fill="#254230"/><rect x="164" y="330" width="8" height="3" fill="#254230"/><rect x="178" y="330" width="8" height="3" fill="#254230"/><rect x="192" y="330" width="8" height="3" fill="#254230"/><rect x="206" y="330" width="8" height="3" fill="#254230"/><rect x="220" y="330" width="8" height="3" fill="#254230"/><rect x="234" y="330" width="8" height="3" fill="#254230"/><rect x="248" y="330" width="8" height="3" fill="#254230"/><rect x="262" y="330" width="8" height="3" fill="#254230"/><rect x="276" y="330" width="8" height="3" fill="#254230"/><rect x="290" y="330" width="8" height="3" fill="#254230"/><rect x="304" y="330" width="8" height="3" fill="#254230"/><rect x="318" y="330" width="8" height="3" fill="#254230"/><rect x="332" y="330" width="8" height="3" fill="#254230"/><rect x="346" y="330" width="8" height="3" fill="#254230"/>

  <!-- lunar calendar info -->
  
      <text x="190" y="398" text-anchor="middle" font-family="'Segoe UI', 'Microsoft JhengHei', sans-serif" font-size="20" font-weight="700" fill="#f1faf4">農曆 六月初十</text>
    

  <!-- footer -->
  <rect x="24" y="434" width="8" height="3" fill="#254230"/><rect x="38" y="434" width="8" height="3" fill="#254230"/><rect x="52" y="434" width="8" height="3" fill="#254230"/><rect x="66" y="434" width="8" height="3" fill="#254230"/><rect x="80" y="434" width="8" height="3" fill="#254230"/><rect x="94" y="434" width="8" height="3" fill="#254230"/><rect x="108" y="434" width="8" height="3" fill="#254230"/><rect x="122" y="434" width="8" height="3" fill="#254230"/><rect x="136" y="434" width="8" height="3" fill="#254230"/><rect x="150" y="434" width="8" height="3" fill="#254230"/><rect x="164" y="434" width="8" height="3" fill="#254230"/><rect x="178" y="434" width="8" height="3" fill="#254230"/><rect x="192" y="434" width="8" height="3" fill="#254230"/><rect x="206" y="434" width="8" height="3" fill="#254230"/><rect x="220" y="434" width="8" height="3" fill="#254230"/><rect x="234" y="434" width="8" height="3" fill="#254230"/><rect x="248" y="434" width="8" height="3" fill="#254230"/><rect x="262" y="434" width="8" height="3" fill="#254230"/><rect x="276" y="434" width="8" height="3" fill="#254230"/><rect x="290" y="434" width="8" height="3" fill="#254230"/><rect x="304" y="434" width="8" height="3" fill="#254230"/><rect x="318" y="434" width="8" height="3" fill="#254230"/><rect x="332" y="434" width="8" height="3" fill="#254230"/><rect x="346" y="434" width="8" height="3" fill="#254230"/>
  <text x="190" y="458" text-anchor="middle" font-family="'Segoe UI', sans-serif" font-size="12" letter-spacing="1" fill="#9bc4a8">UTC+5:30 · 每日自動更新</text>
</svg>